PathFileType	4	(X/Y/Z)	/Users/niels/Desktop/University/Third Semester/Perception and Action/Exam/Gymnastics Motion Tracking/Code for Gym Tracking/Analyzed Data/Webcam_Backflip/id7_1_trajectory_Sports2D/id7_1_trajectory_Sports2D_px_person00.trc
DataRate	CameraRate	NumFrames	NumMarkers	Units	OrigDataRate	OrigDataStartFrame	OrigNumFrames
29.81132075471698	29.81132075471698	10	22	m	29.81132075471698	0	159
Frame#	Time	Hip			RHip			RKnee			RAnkle			RBigToe			RSmallToe			RHeel			LHip			LKnee			LAnkle			LBigToe			LSmallToe			LHeel			Neck			Head			Nose			RShoulder			RElbow			RWrist			LShoulder			LElbow			LWrist		
		X1	Y1	Z1	X2	Y2	Z2	X3	Y3	Z3	X4	Y4	Z4	X5	Y5	Z5	X6	Y6	Z6	X7	Y7	Z7	X8	Y8	Z8	X9	Y9	Z9	X10	Y10	Z10	X11	Y11	Z11	X12	Y12	Z12	X13	Y13	Z13	X14	Y14	Z14	X15	Y15	Z15	X16	Y16	Z16	X17	Y17	Z17	X18	Y18	Z18	X19	Y19	Z19	X20	Y20	Z20	X21	Y21	Z21	X22	Y22	Z22
0	0.0	0.9363725008753366	-0.6254447630398355	0.0	0.9400938044828312	-0.6254453948974424	0.0	1.0105418272991282	-0.6997628451342278	0.0	0.9648586639744402	-0.8051159899051737	0.0	0.9921810049302078	-0.8173714441673486	0.0	0.9859745861674903	-0.8210994598703046	0.0	0.9549976432081086	-0.8150376057061874	0.0	0.9363766807794439	-0.6229604360736317	0.0	0.9969343153961701	-0.6997533150224399	0.0	0.9611447973760222	-0.7976551074019662	0.0	1.0008450617225493	-0.8124115483331669	0.0	0.9958877087732034	-0.8049596106470573	0.0	0.945059770346884	-0.8088161598993362	0.0	0.992108402315274	-0.49160220507109254	0.0	1.013182938458062	-0.42840637805677434	0.0	1.0243315642871877	-0.45690794390248557	0.0	0.9896350795490793	-0.508958160127599	0.0	0.9697803815359692	-0.580878304960052	0.0	0.9672564456888443	-0.6379342564088121	0.0	0.9785013055917868	-0.4990349746345221	0.0	0.9275710265434707	-0.516376526536005	0.0	0.9510980961553487	-0.513907177669166	0.0
1	0.03354430379746835	0.9390480515846975	-0.6424446632002082	0.0	0.9417994757229319	-0.642691720752494	0.0	1.003011324420756	-0.7264516156947427	0.0	0.9631792734959044	-0.8267071654905882	0.0	0.9949888386886143	-0.8408933919726727	0.0	0.9873737137741764	-0.8448080212438263	0.0	0.9529277425887244	-0.8361574162652169	0.0	0.9392276889671948	-0.6406279442764943	0.0	0.9926300224181676	-0.7255085409882721	0.0	0.9599678088911271	-0.8195839211826995	0.0	0.9987169942741255	-0.8351665711702067	0.0	0.9923987560669143	-0.8301822405824826	0.0	0.944711592998327	-0.8293390684672861	0.0	0.9855707433246867	-0.5066171452915743	0.0	1.0010875817342482	-0.4412588122879496	0.0	1.0160902588126204	-0.47032825130165695	0.0	0.984990026355376	-0.5249891063804318	0.0	0.9896394215186776	-0.5883325330650779	0.0	1.0092730345820982	-0.6319063575689339	0.0	0.9736598939146045	-0.5162400257515254	0.0	0.9495181376158449	-0.5411068733369993	0.0	0.9816488824012743	-0.5471294284407852	0.0
2	0.0670886075949367	0.9422454290511924	-0.6554644879276802	0.0	0.9441682998390859	-0.6559065236890923	0.0	0.9963812190929016	-0.7483957491311148	0.0	0.961620415535738	-0.8448016342250433	0.0	0.9969562419599416	-0.860902384829203	0.0	0.9881417962015783	-0.8649790521920051	0.0	0.9510548284711499	-0.8542907184414762	0.0	0.9424716489821766	-0.6542294911911465	0.0	0.9888281908910262	-0.7465789787900446	0.0	0.95903561155498	-0.8379645053020012	0.0	0.9968638346125327	-0.8543425790207847	0.0	0.9892433983575645	-0.8512949903619397	0.0	0.9442424025264493	-0.8467862841153533	0.0	0.9786598619535656	-0.5176579264438222	0.0	0.9874227652345225	-0.4507093026849473	0.0	1.0066897676555935	-0.4799008978148314	0.0	0.9800212923065726	-0.5364167188094074	0.0	1.0068302623484449	-0.5898019556667126	0.0	1.0445111966296252	-0.6176375962428607	0.0	0.968756735727432	-0.5289633601816351	0.0	0.9714496835019002	-0.558861487804107	0.0	1.0110543867397797	-0.5677583029887425	0.0
3	0.10063291139240506	0.946267845216201	-0.6609485928071777	0.0	0.9475925594132547	-0.6615167664454423	0.0	0.9916446901369674	-0.7613495405215996	0.0	0.9605369605194715	-0.8560475369353839	0.0	0.997602175959053	-0.8736811649144789	0.0	0.9879971822633707	-0.8778739667036882	0.0	0.9497659596601797	-0.8661757525628264	0.0	0.9463978709156315	-0.6601863988444955	0.0	0.9862991211158677	-0.758757766854637	0.0	0.9587321597854038	-0.8493446784357558	0.0	0.9955722850107694	-0.8661067811305829	0.0	0.9869328957077287	-0.8641038832343565	0.0	0.9439543289659799	-0.8579513932704105	0.0	0.9708878723234932	-0.521444697993058	0.0	0.9711060998976853	-0.45395324395901016	0.0	0.9951809208926579	-0.48239015934281154	0.0	0.9743237673267154	-0.5395152792515869	0.0	1.0190370616302766	-0.5811150097444329	0.0	1.0675780445538006	-0.5905803844161857	0.0	0.9633548504564576	-0.5336170426673501	0.0	0.9910100932703138	-0.56407854708681	0.0	1.0357198270322996	-0.5678894792452754	0.0
4	0.1341772151898734	0.95103840955823	-0.6565696106326635	0.0	0.952024683573339	-0.6571757251472513	0.0	0.9899377473043559	-0.7624838739837648	0.0	0.960482399025251	-0.8579020960097226	0.0	0.996868821437583	-0.8765891344931452	0.0	0.9870517677831351	-0.8807664863446548	0.0	0.9495825483736791	-0.8690514172805431	0.0	0.950890314349728	-0.656190902489475	0.0	0.9860509217569574	-0.7592022971625902	0.0	0.9594793671714255	-0.8510149714300769	0.0	0.9949905901557339	-0.8676407783748018	0.0	0.9858113917834423	-0.8658338144368224	0.0	0.9444795085998453	-0.8600720889485527	0.0	0.9617360621801448	-0.5161747625660426	0.0	0.9518398242396735	-0.44940775600929295	0.0	0.9810690847887065	-0.4759420279023517	0.0	0.9674483662996496	-0.5323717920130641	0.0	1.0248050731040022	-0.5610145258363473	0.0	1.0761157313322018	-0.5512809224038452	0.0	0.9565442976097451	-0.528388644577296	0.0	1.0041671323059271	-0.5543380470392224	0.0	1.0505550099097203	-0.5469312145885946	0.0
5	0.16772151898734178	0.9560082069847159	-0.6418112715544668	0.0	0.9569116483658008	-0.6423598542128717	0.0	0.9925584804593544	-0.7503382155208014	0.0	0.9623550845325416	-0.8485265748938379	0.0	0.9955449120773928	-0.8685083067874984	0.0	0.986123238530629	-0.8723975231701757	0.0	0.9512583868612262	-0.8608663224034312	0.0	0.9552011468319566	-0.6417836815595461	0.0	0.9891559428078255	-0.7464918681845748	0.0	0.9618752677609489	-0.8410505919989048	0.0	0.9954409166475158	-0.8577903722042659	0.0	0.9860797421065418	-0.8557758785431441	0.0	0.946649285795644	-0.8509700972213295	0.0	0.9508403181096287	-0.5019311176549411	0.0	0.9300787379044515	-0.43702189120867063	0.0	0.9644051384463026	-0.4604787763079182	0.0	0.9590416956728274	-0.5152765842735628	0.0	1.0239056682170737	-0.5310721842085775	0.0	1.0717254508523486	-0.5040563450188545	0.0	0.9472777961683206	-0.5136852745423437	0.0	1.0081780823514823	-0.5311817399316698	0.0	1.0530081731733156	-0.5105355488256583	0.0
6	0.20126582278481012	0.960261364309613	-0.6181508629159856	0.0	0.9613113012114923	-0.618592516069204	0.0	1.00057071550408	-0.7245322769580053	0.0	0.9674388825372213	-0.8266796110281329	0.0	0.9956323601468797	-0.8491091841994872	0.0	0.9871045823817897	-0.8524011211340405	0.0	0.9558857106198553	-0.8402270817294	0.0	0.9582132468222082	-0.6185265858065996	0.0	0.9964198470954179	-0.7204186501645136	0.0	0.9668554046351592	-0.8183157278585835	0.0	0.9977400867248419	-0.8364518394704888	0.0	0.9882115863294761	-0.834369569792227	0.0	0.9514840993930559	-0.829213057269339	0.0	0.9382465302866766	-0.48056227784020644	0.0	0.9068950833893564	-0.4182688047711571	0.0	0.9458106123094301	-0.4376376943964156	0.0	0.9491044876722082	-0.49046020057301104	0.0	1.017402435159923	-0.4948528832787361	0.0	1.059128147088971	-0.4545971695938629	0.0	0.9350476790837218	-0.4919634970731099	0.0	1.0033223723852025	-0.4992510493967249	0.0	1.0451544349094348	-0.4671112967154813	0.0
7	0.23481012658227846	0.9629880728604306	-0.5887035648810448	0.0	0.964394883780027	-0.5890452742354036	0.0	1.0138975097231793	-0.6856376338762106	0.0	0.9771045191570795	-0.7918948478811596	0.0	0.9999716771767623	-0.8180165378344733	0.0	0.9927559617916863	-0.8205875116871324	0.0	0.9648105063227153	-0.8065239952964602	0.0	0.9591713985384527	-0.5895736738097226	0.0	1.0076838645184487	-0.6818575280895752	0.0	0.9755435029175719	-0.7826779096338198	0.0	1.0032942950976484	-0.8037320180228169	0.0	0.993441911916669	-0.8020781132669587	0.0	0.9601797365218927	-0.794485576818035	0.0	0.9245269908126	-0.45507210161059775	0.0	0.883709778914889	-0.39577498434354713	0.0	0.9263698665952381	-0.4103576915499151	0.0	0.9381186340679516	-0.4612877691247349	0.0	1.0073542087732625	-0.45663491160742276	0.0	1.0440866925040768	-0.40800039900806356	0.0	0.920362169386572	-0.4668655873100401	0.0	0.9923243174072784	-0.464281003874365	0.0	1.031980904939031	-0.4244961843636187	0.0
8	0.2683544303797468	0.9641302991124855	-0.5572847044335961	0.0	0.9661187829906804	-0.5575549170266549	0.0	1.0304534541638548	-0.6352642327713235	0.0	0.9920603313499545	-0.7448259948996631	0.0	1.0108995008471215	-0.7747207043990235	0.0	1.005396059180439	-0.7767893361210787	0.0	0.9790376403425302	-0.7603240553367976	0.0	0.9583547758037151	-0.558696318351421	0.0	1.0210711405254154	-0.6327986658932441	0.0	0.9886324519785148	-0.7353188967941547	0.0	1.0136876159869126	-0.7597742715745313	0.0	1.0035808798951844	-0.7591209944156634	0.0	0.9736578343943428	-0.7479860149734969	0.0	0.9106603680793887	-0.42885025964611406	0.0	0.8619667849600208	-0.3727271596542	0.0	0.9073813567090323	-0.3822798275825504	0.0	0.9269191158132386	-0.43135587063709363	0.0	0.9961411776587886	-0.4201882650604438	0.0	1.0312733921328283	-0.367782152031938	0.0	0.9047426823573557	-0.4420598813387847	0.0	0.9789209739239876	-0.4312203458378735	0.0	1.0185806011856473	-0.3881389906971508	0.0
9	0.3018987341772152	0.964665014843007	-0.5271332839291348	0.0	0.9674731787972565	-0.5273733466058785	0.0	1.0462185280139162	-0.576145506243508	0.0	1.0116165824293895	-0.6873981475843421	0.0	1.028975176155702	-0.7188657114681112	0.0	1.0254775251228105	-0.7209725680871146	0.0	0.9984911983613141	-0.7035575374017544	0.0	0.9571561516047296	-0.529058303811283	0.0	1.0330622077910234	-0.576271689318196	0.0	1.005737313389162	-0.6787078101033153	0.0	1.0296989332501758	-0.7048776476929437	0.0	1.019826991491365	-0.7056593950870125	0.0	0.9919295492695062	-0.6923545620009011	0.0	0.8977374143047846	-0.404992227010748	0.0	0.8428829067062031	-0.3523222469002938	0.0	0.8899956458970921	-0.35703263828605103	0.0	0.9164630148017819	-0.40382599342794157	0.0	0.9857327909499598	-0.3880865759325507	0.0	1.022912947035313	-0.33559665427106944	0.0	0.8902280732242667	-0.42039106363453144	0.0	0.9662820559088401	-0.40326167538589197	0.0	1.00805491282991	-0.3607493464560511	0.0
